<?xml version="1.0" encoding="UTF-8"?> <svg xmlns="http://www.w3.org/2000/svg" width="240" height="40" fill="none"><path fill-rule="evenodd" clip-rule="evenodd" d="M77.933 2.793h3.312v8.65h-3.312V8.465c-.136.024-1.16.272-2.162.272-3.164 0-3.275-1.99-3.275-2.744v-3.2h3.312v2.756c0 .691.667.74.927.74.222 0 .642-.024 1.198-.222V2.793zM90.031 2.793v2.038h-4.239V6.08h4.054v1.977h-4.053v1.347h4.325v2.039H82.48v-8.65h7.55zM96.95 5.14h-1.606v1.483c0 2.781-.06 4.968-3.026 4.968a7.659 7.659 0 0 1-1.682-.21V9.158c.186.037.52.086.73.086 1.26 0 1.075-2.076 1.075-3.694V2.793h7.822v8.65h-3.312V5.14zM109.667 11.443h-3.312V8.427h-.741c-.359 0-.964.1-1.076.854l-.321 2.162h-3.46l.569-2.509c.259-1.161 1.124-1.495 1.704-1.581v-.025c-1.124-.186-2.026-.964-2.026-2.225 0-2.187 2.262-2.31 3.485-2.31h5.178v8.65zm-4.029-6.722c-.371 0-1.297.024-1.297.902 0 .963 1.05.951 1.346.951h.816V4.721h-.865zM118.195 2.793v2.162h-4.387v1.2h2.015c2.396 0 3.274 1.346 3.274 2.644 0 1.186-.667 2.644-3.571 2.644h-5.03v-8.65h7.699zm-4.473 6.895h.963c.631 0 1.026-.407 1.026-.914 0-.445-.345-.914-1.088-.914h-.901v1.828zM122.976 2.793v4.943h.05l2.187-4.943h3.867v8.65h-3.312V6.598h-.048l-2.188 4.845h-3.868v-8.65h3.312zM135.84 2.793h3.312v8.65h-3.312V8.255h-2.212v3.188h-3.312v-8.65h3.312v2.99h2.212v-2.99zM147.109 11.245c-1 .272-1.791.346-2.421.346-3.349 0-5.166-1.866-5.166-4.473 0-2.224 1.397-4.473 5.252-4.473.988 0 1.719.16 2.114.234l.197.037v2.287a4.84 4.84 0 0 0-1.742-.334c-1.409 0-2.336.927-2.336 2.175 0 .803.321 2.237 2.398 2.237.321 0 .815-.05 1.704-.334v2.298zM151.287 6.191h.05l2.039-3.398h3.769l-2.916 4.054 3.188 4.596h-3.955l-2.125-3.67h-.05v3.67h-3.31v-8.65h3.31v3.398zM161.494 2.793v4.943h.051l2.186-4.943h3.869v8.65h-3.312V6.598h-.05l-2.187 4.845h-3.867v-8.65h3.31zM172.144 2.793v4.943h.051l2.186-4.943h3.867v8.65h-3.312V6.598h-.048l-2.188 4.845h-3.868v-8.65h3.312zM176.382.32c-.271 1.817-2.323 1.891-2.842 1.891-.518 0-2.57-.074-2.841-1.891L172.218 0c.025.593.705.766 1.322.766.705 0 1.298-.21 1.323-.766l1.519.32zM75.933 19.434h.05l2.038-3.399h3.77l-2.917 4.054 3.188 4.596h-3.955l-2.124-3.67h-.05v3.67H72.62v-8.65h3.312v3.399zM85.805 16.035l1.21 3.745h.05l1.186-3.745h3.262l-2.755 6.538c-.395.926-1.075 2.26-3.2 2.26-.594 0-1.509-.11-2.237-.296V22.35c.531.16.865.197 1.112.197.21 0 .593-.024.593-.321 0-.074 0-.222-.197-.605l-2.794-5.586h3.77zM93.516 19.42h1.57c.383 0 1.26-.036 1.26-.729 0-.654-.94-.728-1.483-.728-.766 0-1.668.135-2.558.444V16.22c1.038-.234 2.04-.333 3.275-.333 3.559 0 4.04 1.569 4.04 2.52 0 .841-.568 1.718-1.68 1.866v.05c1.013.086 1.953.766 1.953 1.903 0 1.05-.668 2.607-4.474 2.607-.89 0-1.866-.05-3.337-.408v-2.249c.89.359 1.966.58 2.941.58 1.162 0 1.385-.493 1.385-.79 0-.358-.223-.84-1.286-.84h-1.606V19.42zM106.243 16.035h3.311v8.65h-3.311v-3.188h-2.212v3.188h-3.312v-8.65h3.312v2.99h2.212v-2.99zM117.848 16.035v2.039h-4.239v1.248h4.053V21.3h-4.053v1.347h4.326v2.038h-7.638v-8.65h7.551zM124.262 16.035h3.311v8.65h-3.311v-2.977c-.136.024-1.161.271-2.162.271-3.164 0-3.276-1.99-3.276-2.744v-3.2h3.313v2.756c0 .692.666.742.926.742a3.55 3.55 0 0 0 1.199-.223v-3.275zM134.333 16.035h3.31v8.65h-3.31v-3.188h-2.214v3.188h-3.31v-8.65h3.31v2.99h2.214v-2.99zM148.147 20.36c0 2.755-1.766 4.473-4.819 4.473-3.052 0-4.819-1.718-4.819-4.473 0-2.756 1.767-4.473 4.819-4.473 3.053 0 4.819 1.717 4.819 4.473zm-6.154 0c0 .902.087 2.397 1.335 2.397s1.335-1.495 1.335-2.397c0-.902-.087-2.397-1.335-2.397s-1.335 1.495-1.335 2.397z" fill="#fff"></path><path d="M152.818 20.273h-3.831v2.15h3.831v-2.15z" fill="#fff"></path><path fill-rule="evenodd" clip-rule="evenodd" d="M162.817 16.035v8.65h-3.312v-6.302h-2.163v6.302h-3.311v-8.65h8.786zM169.117 16.035c2.608 0 3.744 1.52 3.744 3.102 0 1.384-.988 3.053-3.681 3.053h-1.818v2.495h-3.311v-8.65h5.066zm-1.84 4.152h.729c.395 0 1.519-.025 1.519-1.075 0-.507-.271-1.074-1.533-1.074h-.715v2.15zM180.893 16.035v2.039h-4.238v1.248h4.053V21.3h-4.053v1.347h4.325v2.038h-7.637v-8.65h7.55zM188.964 24.487c-1.001.272-1.792.346-2.423.346-3.348 0-5.165-1.866-5.165-4.473 0-2.225 1.397-4.473 5.252-4.473.989 0 1.718.16 2.113.234l.198.037v2.287a4.846 4.846 0 0 0-1.743-.334c-1.407 0-2.335.926-2.335 2.175 0 .803.321 2.237 2.397 2.237.322 0 .816-.05 1.706-.334v2.298z" fill="#fff"></path><path fill-rule="evenodd" clip-rule="evenodd" d="M196.55 24.487c-1.001.272-1.793.346-2.423.346-3.348 0-5.166-1.866-5.166-4.473 0-2.225 1.397-4.473 5.252-4.473.989 0 1.718.16 2.114.234l.198.037v2.287a4.85 4.85 0 0 0-1.743-.334c-1.408 0-2.335.926-2.335 2.175 0 .803.32 2.237 2.396 2.237.323 0 .816-.05 1.707-.334v2.298zM206.19 20.36c0 2.755-1.766 4.473-4.818 4.473-3.054 0-4.82-1.718-4.82-4.473 0-2.756 1.766-4.473 4.82-4.473 3.052 0 4.818 1.717 4.818 4.473zm-6.154 0c0 .902.087 2.397 1.336 2.397 1.247 0 1.334-1.495 1.334-2.397 0-.902-.087-2.397-1.334-2.397-1.249 0-1.336 1.495-1.336 2.397zM212.257 16.035c2.707 0 3.201 1.446 3.201 2.25 0 .988-.68 1.791-1.754 1.989v.049c.863.124 1.951.692 1.951 2.051 0 2.188-2.47 2.311-3.571 2.311h-5.029v-8.65h5.202zm-2.063 3.424h.778c1.137 0 1.248-.594 1.248-.841 0-.359-.26-.829-1.173-.829h-.853v1.67zm0 3.471h.839c1.064 0 1.236-.58 1.236-.889 0-.877-1.026-.877-1.309-.877h-.766v1.766zM216.719 16.035h3.311v2.496h1.817c2.434 0 3.509 1.433 3.509 3.077s-1.075 3.077-3.509 3.077h-5.128v-8.65zm3.893 6.648c.334 0 1.407-.036 1.407-1.075 0-.531-.283-1.075-1.396-1.075h-.679v2.15h.668zm8.736 2.002h-3.312v-8.65h3.312v8.65zm0-8.65v8.65-8.65zM233.893 16.035v4.942h.05l2.186-4.942h3.869v8.65h-3.312v-4.844h-.05l-2.186 4.844h-3.868v-8.65h3.311zm4.239-2.472c-.271 1.817-2.323 1.892-2.842 1.892-.52 0-2.571-.075-2.843-1.892l1.52-.32c.025.592.705.766 1.323.766.704 0 1.298-.21 1.322-.767l1.52.321zM73.93 32.666h1.57c.382 0 1.26-.036 1.26-.728 0-.655-.94-.73-1.483-.73-.767 0-1.669.136-2.558.445v-2.187c1.038-.235 2.038-.334 3.275-.334 3.558 0 4.04 1.57 4.04 2.52 0 .842-.569 1.719-1.681 1.867v.05c1.014.086 1.953.766 1.953 1.903 0 1.05-.667 2.607-4.473 2.607-.89 0-1.866-.05-3.337-.408v-2.249c.89.359 1.965.58 2.942.58 1.16 0 1.383-.493 1.383-.79 0-.358-.222-.84-1.285-.84H73.93v-1.706zM87.57 29.28l3.078 8.65h-3.485l-.593-1.865h-2.595l-.581 1.866h-3.312l3.028-8.65h4.46zm-2.322 2.052-.89 2.706h1.841l-.902-2.706h-.049zM96.284 29.28c2.706 0 3.2 1.447 3.2 2.25 0 .989-.679 1.792-1.755 1.989v.05c.866.123 1.953.691 1.953 2.05 0 2.188-2.47 2.312-3.572 2.312h-5.028v-8.65h5.202zm-2.063 3.424h.778c1.136 0 1.248-.593 1.248-.84 0-.36-.26-.828-1.174-.828h-.852v1.668zm0 3.473h.84c1.063 0 1.235-.582 1.235-.89 0-.878-1.025-.878-1.31-.878h-.765v1.768zM109.519 33.606c0 2.755-1.767 4.473-4.819 4.473s-4.82-1.718-4.82-4.473c0-2.756 1.768-4.474 4.82-4.474 3.052 0 4.819 1.718 4.819 4.474zm-6.154 0c0 .902.086 2.397 1.335 2.397 1.248 0 1.334-1.495 1.334-2.397 0-.902-.086-2.397-1.334-2.397-1.249 0-1.335 1.495-1.335 2.397z" fill="#fff"></path><path fill-rule="evenodd" clip-rule="evenodd" d="M118.826 29.28v6.34h.914v4.227h-3.312V37.93h-3.842v1.916h-3.313V35.62h.667c1.175-1.174 1.187-2.508 1.187-3.571V29.28h7.699zm-4.783 2.225v1.05c0 1.15-.135 2.114-.852 3.065h2.323v-4.115h-1.471zM26.038 2.972l-2.6 10.005c-.495 1.739-2.417 3.135-4.35 3.135h-.213c-1.962 0-3.184-1.44-2.728-3.218l2.568-9.922H5.374L1.453 18.256h36.265l2.725-10.628 5.316 12.718L34.504 30.79l2.221-8.663H.46l-.263 1.028c-.94 3.662 1.577 6.63 5.62 6.63h13.334l-2.134 8.317h22.26l17.468-16.207-7.912-18.923H26.038z" fill="#fff"></path></svg> 